<svg width="24" height="24" viewBox="0 0 24 24" fill="none" xmlns="http://www.w3.org/2000/svg">
<path d="M21 4.49988V8.99988C21 9.1988 20.921 9.38956 20.7803 9.53021C20.6397 9.67087 20.4489 9.74988 20.25 9.74988H15.75C15.6016 9.75 15.4565 9.70608 15.333 9.62367C15.2096 9.54127 15.1133 9.42409 15.0565 9.28698C14.9997 9.14986 14.9849 8.99897 15.0139 8.8534C15.0428 8.70784 15.1144 8.57415 15.2194 8.46926L16.9359 6.74988C15.5551 5.42683 13.7183 4.68536 11.8059 4.67895H11.7638C9.80414 4.6751 7.92181 5.44299 6.52406 6.81645C6.38083 6.95015 6.19096 7.0225 5.99507 7.01801C5.79918 7.01351 5.61283 6.93254 5.47588 6.7924C5.33893 6.65227 5.26226 6.4641 5.26227 6.26816C5.26228 6.07222 5.33897 5.88407 5.47594 5.74395C7.14785 4.11043 9.38972 3.19145 11.7271 3.18148C14.0646 3.17151 16.3142 4.07131 18 5.69051L19.7213 3.96926C19.8262 3.86489 19.9598 3.79393 20.105 3.76531C20.2503 3.73669 20.4007 3.7517 20.5375 3.80843C20.6742 3.86517 20.7911 3.96111 20.8734 4.08415C20.9557 4.20719 20.9997 4.35185 21 4.49988ZM17.4759 17.1833C16.0867 18.5402 14.2253 19.3053 12.2834 19.3178C10.3415 19.3302 8.47053 18.5889 7.06406 17.2499L8.78063 15.5333C8.88661 15.4286 8.95899 15.2946 8.98853 15.1486C9.01808 15.0026 9.00346 14.851 8.94653 14.7133C8.8896 14.5756 8.79294 14.458 8.66889 14.3755C8.54483 14.2929 8.399 14.2492 8.25 14.2499H3.75C3.55109 14.2499 3.36032 14.3289 3.21967 14.4696C3.07902 14.6102 3 14.801 3 14.9999V19.4999C2.99988 19.6483 3.04381 19.7934 3.12621 19.9169C3.20861 20.0403 3.32579 20.1365 3.46291 20.1934C3.60002 20.2502 3.75092 20.265 3.89648 20.236C4.04204 20.207 4.17573 20.1355 4.28063 20.0305L6 18.3093C7.66144 19.9127 9.87852 20.8116 12.1875 20.818H12.2372C14.5885 20.8241 16.8476 19.9035 18.525 18.2558C18.662 18.1157 18.7387 17.9275 18.7387 17.7316C18.7387 17.5357 18.662 17.3475 18.5251 17.2074C18.3881 17.0672 18.2018 16.9863 18.0059 16.9818C17.81 16.9773 17.6201 17.0496 17.4769 17.1833H17.4759Z" fill="black"/>
</svg>
