<svg width="32" height="32" viewBox="0 0 32 32" fill="none" xmlns="http://www.w3.org/2000/svg">
<g clip-path="url(#clip0_87_11824)">
<path d="M7.5 23C8.32843 23 9 23.6716 9 24.5C9 25.3284 8.32843 26 7.5 26C6.67157 26 6 25.3284 6 24.5C6 23.6716 6.67157 23 7.5 23Z" fill="grey"/>
<path d="M16 23C16.8284 23 17.5 23.6716 17.5 24.5C17.5 25.3284 16.8284 26 16 26C15.1716 26 14.5 25.3284 14.5 24.5C14.5 23.6716 15.1716 23 16 23Z" fill="grey"/>
<path d="M24.5 23C25.3284 23 26 23.6716 26 24.5C26 25.3284 25.3284 26 24.5 26C23.6716 26 23 25.3284 23 24.5C23 23.6716 23.6716 23 24.5 23Z" fill="grey"/>
<path d="M7.5 14.5C8.32843 14.5 9 15.1716 9 16C9 16.8284 8.32843 17.5 7.5 17.5C6.67157 17.5 6 16.8284 6 16C6 15.1716 6.67157 14.5 7.5 14.5Z" fill="grey"/>
<path d="M16 14.5C16.8284 14.5 17.5 15.1716 17.5 16C17.5 16.8284 16.8284 17.5 16 17.5C15.1716 17.5 14.5 16.8284 14.5 16C14.5 15.1716 15.1716 14.5 16 14.5Z" fill="grey"/>
<path d="M24.5 14.5C25.3284 14.5 26 15.1716 26 16C26 16.8284 25.3284 17.5 24.5 17.5C23.6716 17.5 23 16.8284 23 16C23 15.1716 23.6716 14.5 24.5 14.5Z" fill="grey"/>
<path d="M7.5 6C8.32843 6 9 6.67157 9 7.5C9 8.32843 8.32843 9 7.5 9C6.67157 9 6 8.32843 6 7.5C6 6.67157 6.67157 6 7.5 6Z" fill="grey"/>
<path d="M16 6C16.8284 6 17.5 6.67157 17.5 7.5C17.5 8.32843 16.8284 9 16 9C15.1716 9 14.5 8.32843 14.5 7.5C14.5 6.67157 15.1716 6 16 6Z" fill="grey"/>
<path d="M24.5 6C25.3284 6 26 6.67157 26 7.5C26 8.32843 25.3284 9 24.5 9C23.6716 9 23 8.32843 23 7.5C23 6.67157 23.6716 6 24.5 6Z" fill="grey"/>
</g>
<defs>
<clipPath id="clip0_87_11824">
<rect width="32" height="32" fill="white" transform="matrix(1 0 0 -1 0 32)"/>
</clipPath>
</defs>
</svg>
