<svg width="32" height="32" viewBox="0 0 32 32" fill="none" xmlns="http://www.w3.org/2000/svg">
<g clip-path="url(#clip0_87_11768)">
<path d="M16 3C13.4288 3 10.9154 3.76244 8.77759 5.1909C6.63975 6.61935 4.97351 8.64968 3.98957 11.0251C3.00563 13.4006 2.74819 16.0144 3.2498 18.5362C3.75141 21.0579 4.98953 23.3743 6.80762 25.1924C8.6257 27.0105 10.9421 28.2486 13.4638 28.7502C15.9856 29.2518 18.5995 28.9944 20.9749 28.0104C23.3503 27.0265 25.3807 25.3603 26.8091 23.2224C28.2376 21.0846 29 18.5712 29 16C28.9964 12.5533 27.6256 9.24882 25.1884 6.81163C22.7512 4.37445 19.4467 3.00364 16 3ZM23.4288 19.1338C23.6195 19.2438 23.7686 19.4137 23.8529 19.6171C23.9373 19.8205 23.9521 20.0461 23.8951 20.2588C23.8381 20.4715 23.7125 20.6594 23.5378 20.7935C23.363 20.9275 23.149 21.0001 22.9288 21C22.7532 21.0005 22.5806 20.9544 22.4288 20.8662L17 17.7325V24C17 24.2652 16.8946 24.5196 16.7071 24.7071C16.5196 24.8946 16.2652 25 16 25C15.7348 25 15.4804 24.8946 15.2929 24.7071C15.1054 24.5196 15 24.2652 15 24V17.7325L9.57126 20.8662C9.34164 20.9985 9.06891 21.0342 8.81297 20.9656C8.55704 20.8969 8.33882 20.7294 8.20626 20.5C8.07349 20.2704 8.03736 19.9975 8.10581 19.7413C8.17426 19.4851 8.34168 19.2665 8.57126 19.1338L14 16L8.57126 12.8663C8.34151 12.7336 8.17386 12.5152 8.10517 12.259C8.07116 12.1321 8.06247 11.9998 8.0796 11.8696C8.09673 11.7393 8.13934 11.6138 8.20501 11.5C8.27067 11.3862 8.35809 11.2865 8.46229 11.2066C8.56648 11.1266 8.68541 11.0679 8.81228 11.0339C9.0685 10.9652 9.34151 11.0011 9.57126 11.1337L15 14.2675V8C15 7.73478 15.1054 7.48043 15.2929 7.29289C15.4804 7.10536 15.7348 7 16 7C16.2652 7 16.5196 7.10536 16.7071 7.29289C16.8946 7.48043 17 7.73478 17 8V14.2675L22.4288 11.1337C22.6585 11.0011 22.9315 10.9652 23.1877 11.0339C23.444 11.1026 23.6624 11.2703 23.795 11.5C23.9276 11.7297 23.9635 12.0028 23.8948 12.259C23.8262 12.5152 23.6585 12.7336 23.4288 12.8663L18 16L23.4288 19.1338Z" fill="#FFD400"/>
</g>
<defs>
<clipPath id="clip0_87_11768">
<rect width="32" height="32" fill="white"/>
</clipPath>
</defs>
</svg>
