<svg width="24" height="24" viewBox="0 0 24 24" fill="none" xmlns="http://www.w3.org/2000/svg">
<path d="M21.6151 10.3763C21.9578 12.413 21.6443 14.506 20.7199 16.353C19.7954 18.2 18.308 19.7054 16.4722 20.6518C14.6364 21.5983 12.5474 21.9369 10.5067 21.6187C8.46592 21.3005 6.57911 20.342 5.11866 18.8815C3.65821 17.421 2.69968 15.5342 2.38147 13.4935C2.06326 11.4528 2.40184 9.36371 3.34832 7.52795C4.2948 5.69218 5.8002 4.20471 7.64718 3.2803C9.49415 2.35589 11.5871 2.04237 13.6239 2.38501C13.8186 2.41944 13.9918 2.52935 14.1059 2.69083C14.2199 2.85232 14.2656 3.05231 14.233 3.24731C14.2004 3.4423 14.0921 3.61653 13.9317 3.73209C13.7712 3.84766 13.5717 3.8952 13.3764 3.86439C12.1934 3.66538 10.9812 3.72655 9.82428 4.04364C8.66733 4.36073 7.59336 4.92613 6.67713 5.70048C5.76091 6.47483 5.02442 7.43954 4.51893 8.52746C4.01344 9.61538 3.7511 10.8004 3.75015 12C3.74837 14.0196 4.49063 15.969 5.83515 17.4759C6.38042 16.6851 7.07306 16.0068 7.87515 15.4781C7.94362 15.4327 8.02511 15.4111 8.10709 15.4165C8.18906 15.4219 8.26699 15.4541 8.3289 15.5081C9.34774 16.3898 10.65 16.875 11.9973 16.875C13.3447 16.875 14.6469 16.3898 15.6658 15.5081C15.7277 15.4541 15.8056 15.4219 15.8876 15.4165C15.9696 15.4111 16.051 15.4327 16.1195 15.4781C16.9224 16.0068 17.616 16.685 18.1623 17.4759C19.5079 15.9694 20.2512 14.0199 20.2501 12C20.2502 11.5389 20.2119 11.0786 20.1358 10.6238C20.1185 10.5262 20.1208 10.4262 20.1424 10.3295C20.164 10.2328 20.2046 10.1414 20.2617 10.0604C20.3189 9.97951 20.3915 9.91072 20.4754 9.85802C20.5593 9.80533 20.6528 9.76978 20.7506 9.75343C20.8483 9.73709 20.9483 9.74026 21.0447 9.76278C21.1412 9.78529 21.2323 9.8267 21.3127 9.88461C21.3931 9.94252 21.4612 10.0158 21.5131 10.1002C21.565 10.1846 21.5997 10.2784 21.6151 10.3763ZM7.87515 11.25C7.87515 12.0659 8.11707 12.8634 8.57033 13.5417C9.0236 14.2201 9.66783 14.7488 10.4216 15.061C11.1753 15.3732 12.0047 15.4549 12.8049 15.2957C13.6051 15.1366 14.3401 14.7437 14.917 14.1668C15.4939 13.5899 15.8867 12.8549 16.0459 12.0548C16.2051 11.2546 16.1234 10.4252 15.8111 9.67144C15.4989 8.9177 14.9702 8.27346 14.2919 7.8202C13.6135 7.36694 12.816 7.12501 12.0001 7.12501C10.9061 7.12501 9.85692 7.55961 9.08333 8.33319C8.30974 9.10678 7.87515 10.156 7.87515 11.25ZM22.2808 3.21939C22.2111 3.14965 22.1284 3.09433 22.0374 3.05659C21.9463 3.01885 21.8487 2.99942 21.7501 2.99942C21.6516 2.99942 21.554 3.01885 21.4629 3.05659C21.3719 3.09433 21.2892 3.14965 21.2195 3.21939L18.7501 5.6897L17.7808 4.71939C17.7111 4.6497 17.6284 4.59443 17.5373 4.55672C17.4463 4.519 17.3487 4.49959 17.2501 4.49959C17.1516 4.49959 17.054 4.519 16.963 4.55672C16.8719 4.59443 16.7892 4.6497 16.7195 4.71939C16.6498 4.78907 16.5946 4.87179 16.5569 4.96284C16.5191 5.05388 16.4997 5.15146 16.4997 5.25001C16.4997 5.34856 16.5191 5.44614 16.5569 5.53718C16.5946 5.62823 16.6498 5.71095 16.7195 5.78064L18.2195 7.28064C18.2892 7.35037 18.3719 7.40569 18.4629 7.44343C18.554 7.48117 18.6516 7.5006 18.7501 7.5006C18.8487 7.5006 18.9463 7.48117 19.0374 7.44343C19.1284 7.40569 19.2111 7.35037 19.2808 7.28064L22.2808 4.28064C22.3505 4.21098 22.4058 4.12826 22.4436 4.03722C22.4813 3.94617 22.5007 3.84857 22.5007 3.75001C22.5007 3.65145 22.4813 3.55385 22.4436 3.46281C22.4058 3.37176 22.3505 3.28904 22.2808 3.21939Z" fill="#6A6A6A"/>
</svg>
